<svg xmlns="http://www.w3.org/2000/svg"  viewBox="0 0 64 64" width="64px" height="64px"><g data-name="06-korea flag"><rect width="64" height="64" fill="#fcfcfc"/><path fill="#0047a0" d="M38,30a9,9,0,0,1,8.99,8.6A16,16,0,0,1,17.01,27.4a8.994,8.994,0,0,0,16.1,5.1A6.248,6.248,0,0,1,37.96,30Z"/><path fill="#cd2e3a" d="M48,33a15.985,15.985,0,0,1-1.01,5.6A9,9,0,0,0,38,30h-.04a6.248,6.248,0,0,0-4.85,2.5,8.99,8.99,0,0,1-16.1-5.1A16,16,0,0,1,48,33Z"/><rect width="15.811" height="2" x="3.594" y="17.5" fill="#2c2c2c" transform="rotate(-55.301 11.5 18.5)"/><rect width="15.811" height="2" x=".594" y="15.5" fill="#2c2c2c" transform="rotate(-55.301 8.5 16.5)"/><rect width="15.811" height="2" x="-2.406" y="13.5" fill="#2c2c2c" transform="rotate(-55.301 5.5 14.5)"/><rect width="7.296" height="2" x="52.427" y="52" fill="#2c2c2c" transform="rotate(-55.324 56.076 53)"/><rect width="7.029" height="2" x="57.486" y="44.89" fill="#2c2c2c" transform="rotate(-55.324 61 45.89)"/><rect width="7.029" height="2" x="49.486" y="50.11" fill="#2c2c2c" transform="rotate(-55.324 53 51.11)"/><rect width="7.029" height="2" x="54.486" y="42.89" fill="#2c2c2c" transform="rotate(-55.324 58 43.89)"/><rect width="7.029" height="2" x="46.486" y="48.11" fill="#2c2c2c" transform="rotate(-55.324 50 49.11)"/><rect width="7.029" height="2" x="51.486" y="40.89" fill="#2c2c2c" transform="rotate(-55.324 55 41.89)"/><rect width="2" height="7.029" x="54" y="18.596" fill="#2c2c2c" transform="rotate(-34.686 55 22.11)"/><rect width="2" height="7.029" x="49" y="11.375" fill="#2c2c2c" transform="rotate(-34.686 50 14.89)"/><rect width="2" height="15.811" x="54.5" y="8.594" fill="#2c2c2c" transform="rotate(-34.695 55.5 16.5)"/><rect width="2" height="7.029" x="60" y="14.596" fill="#2c2c2c" transform="rotate(-34.686 61 18.11)"/><rect width="2" height="7.029" x="55" y="7.375" fill="#2c2c2c" transform="rotate(-34.686 56 10.89)"/><rect width="2" height="15.811" x="4.5" y="41.594" fill="#2c2c2c" transform="rotate(-34.695 5.5 49.5)"/><rect width="2.001" height="7.021" x="10" y="47.605" fill="#2c2c2c" transform="rotate(-34.731 11 51.116)"/><rect width="2" height="7.296" x="5.075" y="40.352" fill="#2c2c2c" transform="rotate(-34.673 6.075 44)"/><rect width="2" height="15.811" x="10.5" y="37.594" fill="#2c2c2c" transform="rotate(-34.695 11.5 45.5)"/></g></svg>